<mxfile>
    <diagram id="hSmGTWOT8QbK2SNYuq14" name="Page-1">
        <mxGraphModel dx="57" dy="1204" grid="1" gridSize="10" guides="1" tooltips="1" connect="1" arrows="1" fold="1" page="1" pageScale="1" pageWidth="827" pageHeight="1169" math="0" shadow="0">
            <root>
                <mxCell id="0"/>
                <mxCell id="1" parent="0"/>
                <mxCell id="80" value="" style="endArrow=none;dashed=1;html=1;strokeWidth=6;fontSize=16;curved=1;fillColor=#fa6800;strokeColor=#C73500;" edge="1" parent="1">
                    <mxGeometry width="50" height="50" relative="1" as="geometry">
                        <mxPoint x="1040" y="-270" as="sourcePoint"/>
                        <mxPoint x="1530" y="-650" as="targetPoint"/>
                        <Array as="points">
                            <mxPoint x="1030" y="-540"/>
                            <mxPoint x="1130" y="-630"/>
                            <mxPoint x="1250" y="-650"/>
                        </Array>
                    </mxGeometry>
                </mxCell>
                <mxCell id="vZo6r4Elmoyre8F_M5Mg-2" value="" style="rounded=1;whiteSpace=wrap;html=1;fillColor=#f8cecc;strokeColor=#b85450;" parent="1" vertex="1">
                    <mxGeometry x="1159" y="-1120" width="360" height="320" as="geometry"/>
                </mxCell>
                <mxCell id="vZo6r4Elmoyre8F_M5Mg-6" value="" style="rounded=1;whiteSpace=wrap;html=1;fillColor=#fff2cc;strokeColor=#d6b656;" parent="1" vertex="1">
                    <mxGeometry x="120" y="-1120" width="360" height="320" as="geometry"/>
                </mxCell>
                <mxCell id="vZo6r4Elmoyre8F_M5Mg-8" value="" style="rounded=1;whiteSpace=wrap;html=1;" parent="1" vertex="1">
                    <mxGeometry x="645" y="-927.5" width="360" height="303" as="geometry"/>
                </mxCell>
                <mxCell id="75" style="edgeStyle=orthogonalEdgeStyle;rounded=1;orthogonalLoop=1;jettySize=auto;html=1;exitX=1;exitY=0.5;exitDx=0;exitDy=0;entryX=0;entryY=0.5;entryDx=0;entryDy=0;startArrow=none;startFill=0;" edge="1" parent="1" source="vZo6r4Elmoyre8F_M5Mg-9" target="74">
                    <mxGeometry relative="1" as="geometry"/>
                </mxCell>
                <mxCell id="vZo6r4Elmoyre8F_M5Mg-9" value="&lt;div style=&quot;font-size: 14px&quot;&gt;&lt;span style=&quot;font-size: 14px&quot;&gt;ESP32 Microcontroller&lt;/span&gt;&lt;/div&gt;" style="rounded=1;whiteSpace=wrap;html=1;align=center;fontSize=14;strokeWidth=3;" parent="1" vertex="1">
                    <mxGeometry x="765" y="-760" width="120" height="60" as="geometry"/>
                </mxCell>
                <mxCell id="67" style="edgeStyle=orthogonalEdgeStyle;rounded=0;orthogonalLoop=1;jettySize=auto;html=1;exitX=1;exitY=0.5;exitDx=0;exitDy=0;entryX=0;entryY=0.75;entryDx=0;entryDy=0;startArrow=classic;startFill=1;shape=flexArrow;strokeWidth=2;" edge="1" parent="1" source="vZo6r4Elmoyre8F_M5Mg-10" target="vZo6r4Elmoyre8F_M5Mg-8">
                    <mxGeometry relative="1" as="geometry"/>
                </mxCell>
                <mxCell id="70" style="edgeStyle=orthogonalEdgeStyle;rounded=1;orthogonalLoop=1;jettySize=auto;html=1;exitX=1;exitY=0.25;exitDx=0;exitDy=0;entryX=0;entryY=0.25;entryDx=0;entryDy=0;startArrow=none;startFill=0;" edge="1" parent="1" source="vZo6r4Elmoyre8F_M5Mg-10" target="vZo6r4Elmoyre8F_M5Mg-8">
                    <mxGeometry relative="1" as="geometry"/>
                </mxCell>
                <mxCell id="78" value="Power" style="edgeLabel;html=1;align=center;verticalAlign=middle;resizable=0;points=[];fontSize=14;" vertex="1" connectable="0" parent="70">
                    <mxGeometry x="-0.2662" y="3" relative="1" as="geometry">
                        <mxPoint y="-34.38" as="offset"/>
                    </mxGeometry>
                </mxCell>
                <mxCell id="vZo6r4Elmoyre8F_M5Mg-10" value="Arduino Adapter Board" style="rounded=1;whiteSpace=wrap;html=1;fontSize=14;" parent="1" vertex="1">
                    <mxGeometry x="480.32" y="-800" width="80" height="200" as="geometry"/>
                </mxCell>
                <mxCell id="34" style="edgeStyle=orthogonalEdgeStyle;rounded=0;orthogonalLoop=1;jettySize=auto;html=1;exitX=0;exitY=0.5;exitDx=0;exitDy=0;entryX=0;entryY=0.25;entryDx=0;entryDy=0;startArrow=classic;startFill=1;" parent="1" source="vZo6r4Elmoyre8F_M5Mg-13" target="vZo6r4Elmoyre8F_M5Mg-14" edge="1">
                    <mxGeometry relative="1" as="geometry">
                        <Array as="points">
                            <mxPoint x="1168" y="-1060"/>
                            <mxPoint x="1168" y="-957"/>
                            <mxPoint x="1193" y="-957"/>
                        </Array>
                    </mxGeometry>
                </mxCell>
                <mxCell id="vZo6r4Elmoyre8F_M5Mg-13" value="Arduino Nano Every" style="rounded=1;whiteSpace=wrap;html=1;fillColor=#f8cecc;strokeColor=#b85450;fontSize=14;" parent="1" vertex="1">
                    <mxGeometry x="1180.88" y="-1090" width="120" height="60" as="geometry"/>
                </mxCell>
                <mxCell id="63" style="edgeStyle=orthogonalEdgeStyle;rounded=0;orthogonalLoop=1;jettySize=auto;html=1;exitX=0;exitY=0.75;exitDx=0;exitDy=0;entryX=0;entryY=0.5;entryDx=0;entryDy=0;startArrow=classic;startFill=1;" edge="1" parent="1" source="vZo6r4Elmoyre8F_M5Mg-14" target="vZo6r4Elmoyre8F_M5Mg-18">
                    <mxGeometry relative="1" as="geometry"/>
                </mxCell>
                <mxCell id="vZo6r4Elmoyre8F_M5Mg-14" value="SMPS" style="rounded=1;whiteSpace=wrap;html=1;fillColor=#f8cecc;strokeColor=#b85450;fontSize=14;" parent="1" vertex="1">
                    <mxGeometry x="1192.75" y="-967.5" width="80" height="40" as="geometry"/>
                </mxCell>
                <mxCell id="vZo6r4Elmoyre8F_M5Mg-18" value="Battery Cells" style="rounded=1;whiteSpace=wrap;html=1;fillColor=#f8cecc;strokeColor=#b85450;fontSize=14;" parent="1" vertex="1">
                    <mxGeometry x="1192.75" y="-870" width="80" height="40" as="geometry"/>
                </mxCell>
                <mxCell id="62" style="edgeStyle=orthogonalEdgeStyle;rounded=0;orthogonalLoop=1;jettySize=auto;html=1;exitX=1;exitY=0.5;exitDx=0;exitDy=0;entryX=1;entryY=0.5;entryDx=0;entryDy=0;startArrow=classic;startFill=1;" edge="1" parent="1" source="vZo6r4Elmoyre8F_M5Mg-19" target="vZo6r4Elmoyre8F_M5Mg-14">
                    <mxGeometry relative="1" as="geometry"/>
                </mxCell>
                <mxCell id="vZo6r4Elmoyre8F_M5Mg-19" value="PV Panels" style="rounded=1;whiteSpace=wrap;html=1;fillColor=#f8cecc;strokeColor=#b85450;fontSize=14;" parent="1" vertex="1">
                    <mxGeometry x="1192.75" y="-920" width="80" height="40" as="geometry"/>
                </mxCell>
                <mxCell id="vZo6r4Elmoyre8F_M5Mg-23" value="D8M-GPIO&amp;nbsp;&lt;br style=&quot;font-size: 14px;&quot;&gt;Camera&amp;nbsp;" style="rounded=1;whiteSpace=wrap;html=1;fillColor=#fff2cc;strokeColor=#d6b656;fontSize=14;" parent="1" vertex="1">
                    <mxGeometry x="131.88" y="-1055" width="120" height="60" as="geometry"/>
                </mxCell>
                <mxCell id="vZo6r4Elmoyre8F_M5Mg-24" value="Terasic DE10-Lite FPGA&amp;nbsp;" style="rounded=1;whiteSpace=wrap;html=1;fillColor=#fff2cc;strokeColor=#d6b656;fontSize=14;" parent="1" vertex="1">
                    <mxGeometry x="131.88" y="-920" width="120" height="60" as="geometry"/>
                </mxCell>
                <mxCell id="vZo6r4Elmoyre8F_M5Mg-25" value="&lt;font style=&quot;font-size: 20px;&quot;&gt;&lt;b style=&quot;font-size: 20px;&quot;&gt;&lt;u style=&quot;font-size: 20px;&quot;&gt;Vision&lt;/u&gt;&lt;/b&gt;&lt;/font&gt;" style="text;html=1;strokeColor=none;fillColor=none;align=center;verticalAlign=middle;whiteSpace=wrap;rounded=0;fontSize=20;" parent="1" vertex="1">
                    <mxGeometry x="281.26" y="-1110" width="40" height="20" as="geometry"/>
                </mxCell>
                <mxCell id="vZo6r4Elmoyre8F_M5Mg-26" value="&lt;font style=&quot;font-size: 19px;&quot;&gt;&lt;b style=&quot;font-size: 19px;&quot;&gt;&lt;u style=&quot;font-size: 19px;&quot;&gt;Energy&lt;/u&gt;&lt;/b&gt;&lt;/font&gt;" style="text;html=1;strokeColor=none;fillColor=none;align=center;verticalAlign=middle;whiteSpace=wrap;rounded=0;fontSize=19;" parent="1" vertex="1">
                    <mxGeometry x="1319" y="-1110" width="40" height="20" as="geometry"/>
                </mxCell>
                <mxCell id="vZo6r4Elmoyre8F_M5Mg-30" value="&lt;span style=&quot;font-size: 18px;&quot;&gt;&lt;b style=&quot;font-size: 18px;&quot;&gt;&lt;u style=&quot;font-size: 18px;&quot;&gt;Control&lt;/u&gt;&lt;/b&gt;&lt;/span&gt;" style="text;html=1;strokeColor=none;fillColor=none;align=center;verticalAlign=middle;whiteSpace=wrap;rounded=0;fontSize=18;" parent="1" vertex="1">
                    <mxGeometry x="800" y="-910" width="40" height="20" as="geometry"/>
                </mxCell>
                <mxCell id="vZo6r4Elmoyre8F_M5Mg-31" value="&lt;b&gt;&lt;u&gt;&lt;font style=&quot;font-size: 26px&quot;&gt;MARS Rover Structural Diagram&lt;/font&gt;&lt;/u&gt;&lt;/b&gt;" style="text;html=1;strokeColor=none;fillColor=none;align=center;verticalAlign=middle;whiteSpace=wrap;rounded=0;" parent="1" vertex="1">
                    <mxGeometry x="590" y="-1140" width="460" height="20" as="geometry"/>
                </mxCell>
                <mxCell id="64" style="edgeStyle=orthogonalEdgeStyle;rounded=0;orthogonalLoop=1;jettySize=auto;html=1;exitX=1;exitY=0.5;exitDx=0;exitDy=0;entryX=0.966;entryY=0.999;entryDx=0;entryDy=0;entryPerimeter=0;startArrow=classic;startFill=1;" edge="1" parent="1" source="vZo6r4Elmoyre8F_M5Mg-32" target="vZo6r4Elmoyre8F_M5Mg-13">
                    <mxGeometry relative="1" as="geometry"/>
                </mxCell>
                <mxCell id="vZo6r4Elmoyre8F_M5Mg-32" value="SD-Card" style="rounded=1;whiteSpace=wrap;html=1;fillColor=#f8cecc;strokeColor=#b85450;fontSize=14;" parent="1" vertex="1">
                    <mxGeometry x="1190.44" y="-1020" width="80" height="40" as="geometry"/>
                </mxCell>
                <mxCell id="vZo6r4Elmoyre8F_M5Mg-34" value="" style="endArrow=classic;html=1;exitX=0;exitY=0.5;exitDx=0;exitDy=0;dashed=1;entryX=1;entryY=0.5;entryDx=0;entryDy=0;strokeWidth=2;" parent="1" source="vZo6r4Elmoyre8F_M5Mg-2" target="vZo6r4Elmoyre8F_M5Mg-6" edge="1">
                    <mxGeometry width="50" height="50" relative="1" as="geometry">
                        <mxPoint x="500" y="-985" as="sourcePoint"/>
                        <mxPoint x="380" y="-980" as="targetPoint"/>
                    </mxGeometry>
                </mxCell>
                <mxCell id="vZo6r4Elmoyre8F_M5Mg-38" value="Powering" style="text;html=1;strokeColor=none;fillColor=none;align=center;verticalAlign=middle;whiteSpace=wrap;rounded=0;fontSize=14;" parent="1" vertex="1">
                    <mxGeometry x="880" y="-987.5" width="40" height="20" as="geometry"/>
                </mxCell>
                <mxCell id="vZo6r4Elmoyre8F_M5Mg-43" value="" style="endArrow=classic;html=1;entryX=1;entryY=0.25;entryDx=0;entryDy=0;" parent="1" target="vZo6r4Elmoyre8F_M5Mg-6" edge="1">
                    <mxGeometry width="50" height="50" relative="1" as="geometry">
                        <mxPoint x="560" y="-1040" as="sourcePoint"/>
                        <mxPoint x="340" y="-1030" as="targetPoint"/>
                    </mxGeometry>
                </mxCell>
                <mxCell id="vZo6r4Elmoyre8F_M5Mg-44" value="Powered by USB" style="text;html=1;strokeColor=none;fillColor=none;align=center;verticalAlign=middle;whiteSpace=wrap;rounded=0;fontSize=14;" parent="1" vertex="1">
                    <mxGeometry x="500" y="-1070" width="140" height="20" as="geometry"/>
                </mxCell>
                <mxCell id="vZo6r4Elmoyre8F_M5Mg-53" value="" style="endArrow=classic;html=1;entryX=0;entryY=0.25;entryDx=0;entryDy=0;" parent="1" target="vZo6r4Elmoyre8F_M5Mg-2" edge="1">
                    <mxGeometry width="50" height="50" relative="1" as="geometry">
                        <mxPoint x="1040" y="-1040" as="sourcePoint"/>
                        <mxPoint x="590" y="-1020.5" as="targetPoint"/>
                        <Array as="points"/>
                    </mxGeometry>
                </mxCell>
                <mxCell id="vZo6r4Elmoyre8F_M5Mg-54" value="Powered by&amp;nbsp;USB" style="text;html=1;strokeColor=none;fillColor=none;align=center;verticalAlign=middle;whiteSpace=wrap;rounded=0;fontSize=14;" parent="1" vertex="1">
                    <mxGeometry x="990" y="-1070" width="150" height="20" as="geometry"/>
                </mxCell>
                <mxCell id="vZo6r4Elmoyre8F_M5Mg-55" value="" style="endArrow=classic;startArrow=classic;html=1;entryX=0.5;entryY=1;entryDx=0;entryDy=0;exitX=0.5;exitY=0;exitDx=0;exitDy=0;" parent="1" source="vZo6r4Elmoyre8F_M5Mg-24" target="vZo6r4Elmoyre8F_M5Mg-23" edge="1">
                    <mxGeometry width="50" height="50" relative="1" as="geometry">
                        <mxPoint x="101.88" y="-850" as="sourcePoint"/>
                        <mxPoint x="151.88" y="-900" as="targetPoint"/>
                    </mxGeometry>
                </mxCell>
                <mxCell id="9" value="GPIO Pins" style="edgeLabel;html=1;align=center;verticalAlign=middle;resizable=0;points=[];labelBackgroundColor=#FFF2CC;fontSize=13;" parent="vZo6r4Elmoyre8F_M5Mg-55" vertex="1" connectable="0">
                    <mxGeometry x="0.2222" y="1" relative="1" as="geometry">
                        <mxPoint x="1" y="9" as="offset"/>
                    </mxGeometry>
                </mxCell>
                <mxCell id="KPlfj069VjZipwwZR6Ud-6" value="&lt;b style=&quot;font-size: 14px&quot;&gt;Parameters:&lt;/b&gt;&lt;br style=&quot;font-size: 14px&quot;&gt;- Pin Assignments&lt;br style=&quot;font-size: 14px&quot;&gt;- Data Formats&lt;br style=&quot;font-size: 14px&quot;&gt;- Data Protocols&lt;br style=&quot;font-size: 14px&quot;&gt;- Conditions for data transfer&lt;br&gt;- Programming Configuration" style="text;html=1;strokeColor=none;fillColor=none;align=center;verticalAlign=top;whiteSpace=wrap;rounded=0;fontSize=14;" parent="1" vertex="1">
                    <mxGeometry x="712.5" y="-885" width="225" height="125" as="geometry"/>
                </mxCell>
                <mxCell id="KPlfj069VjZipwwZR6Ud-11" value="" style="shape=flexArrow;endArrow=classic;startArrow=classic;html=1;entryX=0.5;entryY=1;entryDx=0;entryDy=0;strokeWidth=2;exitX=0;exitY=0.75;exitDx=0;exitDy=0;" parent="1" source="vZo6r4Elmoyre8F_M5Mg-5" target="vZo6r4Elmoyre8F_M5Mg-8" edge="1">
                    <mxGeometry width="100" height="100" relative="1" as="geometry">
                        <mxPoint x="413.9999999999998" y="-540" as="sourcePoint"/>
                        <mxPoint x="460" y="-610" as="targetPoint"/>
                        <Array as="points">
                            <mxPoint x="825" y="-360"/>
                        </Array>
                    </mxGeometry>
                </mxCell>
                <mxCell id="KPlfj069VjZipwwZR6Ud-12" value="&lt;span style=&quot;font-size: 15px;&quot;&gt;&amp;nbsp; Dataflow&amp;nbsp;&amp;nbsp;&lt;/span&gt;" style="edgeLabel;html=1;align=center;verticalAlign=middle;resizable=0;points=[];fontSize=15;" parent="KPlfj069VjZipwwZR6Ud-11" vertex="1" connectable="0">
                    <mxGeometry x="0.1628" y="-2" relative="1" as="geometry">
                        <mxPoint x="103" y="14" as="offset"/>
                    </mxGeometry>
                </mxCell>
                <mxCell id="KPlfj069VjZipwwZR6Ud-15" value="" style="shape=flexArrow;endArrow=classic;startArrow=classic;html=1;exitX=0.5;exitY=0;exitDx=0;exitDy=0;strokeWidth=2;entryX=0;entryY=0.75;entryDx=0;entryDy=0;" parent="1" source="vZo6r4Elmoyre8F_M5Mg-7" target="vZo6r4Elmoyre8F_M5Mg-10" edge="1">
                    <mxGeometry width="100" height="100" relative="1" as="geometry">
                        <mxPoint x="670" y="-580" as="sourcePoint"/>
                        <mxPoint x="730" y="-640" as="targetPoint"/>
                        <Array as="points">
                            <mxPoint x="300" y="-650"/>
                        </Array>
                    </mxGeometry>
                </mxCell>
                <mxCell id="KPlfj069VjZipwwZR6Ud-16" value="&lt;span style=&quot;font-size: 15px&quot;&gt;&amp;nbsp; Dataflow&amp;nbsp;&amp;nbsp;&lt;/span&gt;" style="edgeLabel;html=1;align=center;verticalAlign=middle;resizable=0;points=[];" parent="KPlfj069VjZipwwZR6Ud-15" vertex="1" connectable="0">
                    <mxGeometry x="0.1628" y="-2" relative="1" as="geometry">
                        <mxPoint x="9.009999999999991" y="-2" as="offset"/>
                    </mxGeometry>
                </mxCell>
                <mxCell id="KPlfj069VjZipwwZR6Ud-17" value="" style="shape=flexArrow;endArrow=classic;startArrow=none;html=1;entryX=0;entryY=0.25;entryDx=0;entryDy=0;exitX=0.5;exitY=1;exitDx=0;exitDy=0;startFill=0;startSize=6;fillColor=#ffffff;strokeWidth=2;" parent="1" source="vZo6r4Elmoyre8F_M5Mg-6" target="vZo6r4Elmoyre8F_M5Mg-10" edge="1">
                    <mxGeometry width="100" height="100" relative="1" as="geometry">
                        <mxPoint x="150" y="-810" as="sourcePoint"/>
                        <mxPoint x="305" y="-840" as="targetPoint"/>
                        <Array as="points">
                            <mxPoint x="300" y="-790"/>
                            <mxPoint x="300" y="-750"/>
                        </Array>
                    </mxGeometry>
                </mxCell>
                <mxCell id="KPlfj069VjZipwwZR6Ud-18" value="&amp;nbsp; Dataflow&amp;nbsp;&amp;nbsp;" style="edgeLabel;html=1;align=center;verticalAlign=middle;resizable=0;points=[];fontSize=15;spacingLeft=8;spacingRight=9;" parent="KPlfj069VjZipwwZR6Ud-17" vertex="1" connectable="0">
                    <mxGeometry x="0.1628" y="-2" relative="1" as="geometry">
                        <mxPoint x="-3.1200000000000045" y="-2" as="offset"/>
                    </mxGeometry>
                </mxCell>
                <mxCell id="KPlfj069VjZipwwZR6Ud-19" value="" style="shape=flexArrow;endArrow=none;startArrow=classic;html=1;dashed=1;exitX=1;exitY=0.75;exitDx=0;exitDy=0;endFill=0;strokeWidth=2;" parent="1" source="vZo6r4Elmoyre8F_M5Mg-8" edge="1">
                    <mxGeometry width="100" height="100" relative="1" as="geometry">
                        <mxPoint x="610" y="-760" as="sourcePoint"/>
                        <mxPoint x="1250" y="-700" as="targetPoint"/>
                        <Array as="points">
                            <mxPoint x="1240" y="-700"/>
                        </Array>
                    </mxGeometry>
                </mxCell>
                <mxCell id="11" value="Arduino Uno R3 Connector" style="text;html=1;fillColor=none;align=center;verticalAlign=middle;whiteSpace=wrap;rounded=1;labelBackgroundColor=#FFF2CC;strokeColor=#000000;fontSize=14;" parent="1" vertex="1">
                    <mxGeometry x="210.32" y="-820" width="180" height="20" as="geometry"/>
                </mxCell>
                <mxCell id="16" value="" style="endArrow=classic;startArrow=classic;html=1;entryX=0;entryY=0.5;entryDx=0;entryDy=0;exitX=0.5;exitY=1;exitDx=0;exitDy=0;" parent="1" source="vZo6r4Elmoyre8F_M5Mg-24" target="11" edge="1">
                    <mxGeometry width="50" height="50" relative="1" as="geometry">
                        <mxPoint x="141.88" y="-780" as="sourcePoint"/>
                        <mxPoint x="201.88" y="-850" as="targetPoint"/>
                        <Array as="points">
                            <mxPoint x="190" y="-810"/>
                        </Array>
                    </mxGeometry>
                </mxCell>
                <mxCell id="21" value="&lt;b style=&quot;font-size: 14px;&quot;&gt;Parameters:&lt;br style=&quot;font-size: 14px;&quot;&gt;&lt;/b&gt;-Pin Assignment&lt;br style=&quot;font-size: 14px;&quot;&gt;-Serial Communicaiion" style="text;html=1;strokeColor=none;fillColor=none;align=left;verticalAlign=middle;whiteSpace=wrap;rounded=0;fontSize=14;" parent="1" vertex="1">
                    <mxGeometry x="1329" y="-1072.5" width="160" height="42.5" as="geometry"/>
                </mxCell>
                <mxCell id="22" value="&lt;div style=&quot;text-align: center; font-size: 14px;&quot;&gt;&lt;b style=&quot;font-size: 14px;&quot;&gt;Parameters&lt;/b&gt;&lt;/div&gt;&lt;div style=&quot;font-size: 14px;&quot;&gt;- Camera Resolution: 640x480&lt;/div&gt;&lt;div style=&quot;font-size: 14px;&quot;&gt;- Frame Rate: 60fps&lt;/div&gt;&lt;div style=&quot;font-size: 14px;&quot;&gt;- White Balance Correction,&lt;/div&gt;&lt;div style=&quot;font-size: 14px;&quot;&gt;- Exposure Correction,&amp;nbsp;&lt;/div&gt;&lt;div style=&quot;font-size: 14px;&quot;&gt;- Lens Correction&lt;/div&gt;&lt;div style=&quot;font-size: 14px;&quot;&gt;- Gain Correction&amp;nbsp;&lt;/div&gt;&lt;div style=&quot;font-size: 14px;&quot;&gt;- Manual Focus Settings&lt;/div&gt;" style="text;html=1;strokeColor=none;fillColor=none;align=left;verticalAlign=middle;whiteSpace=wrap;rounded=0;labelBackgroundColor=#FFF2CC;fontSize=14;" parent="1" vertex="1">
                    <mxGeometry x="261.88" y="-1050" width="210" height="90" as="geometry"/>
                </mxCell>
                <mxCell id="23" value="- Duty Cycle&lt;br style=&quot;font-size: 14px&quot;&gt;- Output voltage/Current&lt;br style=&quot;font-size: 14px&quot;&gt;- Input voltage/current" style="text;html=1;strokeColor=none;fillColor=none;align=left;verticalAlign=middle;whiteSpace=wrap;rounded=0;fontSize=14;" parent="1" vertex="1">
                    <mxGeometry x="1329" y="-975" width="180" height="55" as="geometry"/>
                </mxCell>
                <mxCell id="25" value="- Write and read speed" style="text;html=1;strokeColor=none;fillColor=none;align=left;verticalAlign=middle;whiteSpace=wrap;rounded=0;fontSize=14;" parent="1" vertex="1">
                    <mxGeometry x="1329" y="-1015" width="180" height="30" as="geometry"/>
                </mxCell>
                <mxCell id="26" value="- Maximum power draw" style="text;html=1;strokeColor=none;fillColor=none;align=left;verticalAlign=middle;whiteSpace=wrap;rounded=0;fontSize=14;" parent="1" vertex="1">
                    <mxGeometry x="1329" y="-915" width="180" height="30" as="geometry"/>
                </mxCell>
                <mxCell id="27" value="- Voltage&lt;br style=&quot;font-size: 14px;&quot;&gt;- SOC&lt;br style=&quot;font-size: 14px;&quot;&gt;- SOH" style="text;html=1;strokeColor=none;fillColor=none;align=left;verticalAlign=middle;whiteSpace=wrap;rounded=0;fontSize=14;" parent="1" vertex="1">
                    <mxGeometry x="1329" y="-870" width="180" height="30" as="geometry"/>
                </mxCell>
                <mxCell id="33" value="- Colours / Objects to Detect&lt;br style=&quot;font-size: 14px;&quot;&gt;- Image Data Transfer Frequency&lt;br style=&quot;font-size: 14px;&quot;&gt;- HSV Threshold Range&lt;br style=&quot;font-size: 14px;&quot;&gt;- Clock Speed" style="text;html=1;strokeColor=none;fillColor=none;align=left;verticalAlign=middle;whiteSpace=wrap;rounded=0;labelBackgroundColor=#FFF2CC;fontSize=14;" parent="1" vertex="1">
                    <mxGeometry x="261.88" y="-920" width="200" height="70" as="geometry"/>
                </mxCell>
                <mxCell id="57" value="" style="group;fontSize=14;" vertex="1" connectable="0" parent="1">
                    <mxGeometry x="547.5" y="-390" width="240" height="70" as="geometry"/>
                </mxCell>
                <mxCell id="51" value="&lt;font style=&quot;font-size: 13px&quot;&gt;Legend&lt;br&gt;&lt;/font&gt;&lt;div style=&quot;text-align: left ; font-size: 13px&quot;&gt;&lt;span style=&quot;font-weight: normal&quot;&gt;&lt;font style=&quot;font-size: 13px&quot;&gt;&amp;nbsp; &amp;nbsp; &amp;nbsp; &amp;nbsp; &amp;nbsp;Theoretical Connections&lt;/font&gt;&lt;/span&gt;&lt;/div&gt;&lt;span style=&quot;font-weight: normal ; font-size: 13px&quot;&gt;&lt;div style=&quot;text-align: left&quot;&gt;&lt;span&gt;&lt;font style=&quot;font-size: 13px&quot;&gt;&amp;nbsp; &amp;nbsp; &amp;nbsp; &amp;nbsp; &amp;nbsp; Actual Connections&lt;/font&gt;&lt;/span&gt;&lt;/div&gt;&lt;/span&gt;" style="rounded=0;whiteSpace=wrap;html=1;labelBackgroundColor=none;strokeColor=#000000;fontStyle=1" parent="57" vertex="1">
                    <mxGeometry width="240" height="70" as="geometry"/>
                </mxCell>
                <mxCell id="52" value="" style="endArrow=none;dashed=1;html=1;" parent="57" edge="1">
                    <mxGeometry width="50" height="50" relative="1" as="geometry">
                        <mxPoint x="10" y="35" as="sourcePoint"/>
                        <mxPoint x="60" y="35" as="targetPoint"/>
                    </mxGeometry>
                </mxCell>
                <mxCell id="53" value="" style="endArrow=none;html=1;" parent="57" edge="1">
                    <mxGeometry width="50" height="50" relative="1" as="geometry">
                        <mxPoint x="10" y="49.5" as="sourcePoint"/>
                        <mxPoint x="60" y="49.5" as="targetPoint"/>
                    </mxGeometry>
                </mxCell>
                <mxCell id="59" value="" style="endArrow=classic;html=1;entryX=0.75;entryY=0;entryDx=0;entryDy=0;strokeWidth=2;" edge="1" parent="1" target="vZo6r4Elmoyre8F_M5Mg-10">
                    <mxGeometry width="50" height="50" relative="1" as="geometry">
                        <mxPoint x="480" y="-880" as="sourcePoint"/>
                        <mxPoint x="570" y="-870" as="targetPoint"/>
                        <Array as="points">
                            <mxPoint x="520" y="-850"/>
                        </Array>
                    </mxGeometry>
                </mxCell>
                <mxCell id="77" value="Power" style="edgeLabel;html=1;align=center;verticalAlign=middle;resizable=0;points=[];fontSize=14;" vertex="1" connectable="0" parent="59">
                    <mxGeometry x="0.2191" y="1" relative="1" as="geometry">
                        <mxPoint as="offset"/>
                    </mxGeometry>
                </mxCell>
                <mxCell id="vZo6r4Elmoyre8F_M5Mg-7" value="" style="rounded=1;whiteSpace=wrap;html=1;fillColor=#dae8fc;strokeColor=#6c8ebf;" parent="1" vertex="1">
                    <mxGeometry x="120.32" y="-600" width="360" height="320" as="geometry"/>
                </mxCell>
                <mxCell id="vZo6r4Elmoyre8F_M5Mg-17" value="Arduino Nano Every" style="rounded=1;whiteSpace=wrap;html=1;fillColor=#dae8fc;strokeColor=#6c8ebf;" parent="1" vertex="1">
                    <mxGeometry x="144.7600000000001" y="-570" width="97.12" height="60" as="geometry"/>
                </mxCell>
                <mxCell id="vZo6r4Elmoyre8F_M5Mg-20" value="SMPS" style="rounded=1;whiteSpace=wrap;html=1;fillColor=#dae8fc;strokeColor=#6c8ebf;" parent="1" vertex="1">
                    <mxGeometry x="151.88" y="-450" width="83.75" height="40" as="geometry"/>
                </mxCell>
                <mxCell id="vZo6r4Elmoyre8F_M5Mg-21" value="Optical Flow Sensor" style="rounded=1;whiteSpace=wrap;html=1;fillColor=#dae8fc;strokeColor=#6c8ebf;" parent="1" vertex="1">
                    <mxGeometry x="151.88000000000022" y="-400" width="80" height="40" as="geometry"/>
                </mxCell>
                <mxCell id="vZo6r4Elmoyre8F_M5Mg-22" value="DC Motors" style="rounded=1;whiteSpace=wrap;html=1;fillColor=#dae8fc;strokeColor=#6c8ebf;" parent="1" vertex="1">
                    <mxGeometry x="153.7499999999999" y="-350" width="80" height="40" as="geometry"/>
                </mxCell>
                <mxCell id="vZo6r4Elmoyre8F_M5Mg-29" value="&lt;b&gt;&lt;u&gt;&lt;font style=&quot;font-size: 20px&quot;&gt;Drive&lt;/font&gt;&lt;/u&gt;&lt;/b&gt;" style="text;html=1;strokeColor=none;fillColor=none;align=center;verticalAlign=middle;whiteSpace=wrap;rounded=0;fontSize=16;" parent="1" vertex="1">
                    <mxGeometry x="280" y="-590" width="40" height="20" as="geometry"/>
                </mxCell>
                <mxCell id="vZo6r4Elmoyre8F_M5Mg-47" value="" style="endArrow=classic;html=1;entryX=1;entryY=0.25;entryDx=0;entryDy=0;" parent="1" target="vZo6r4Elmoyre8F_M5Mg-7" edge="1">
                    <mxGeometry x="-17.120000000000005" y="-640" width="50" height="50" as="geometry">
                        <mxPoint x="610" y="-520" as="sourcePoint"/>
                        <mxPoint x="-587.12" y="-600" as="targetPoint"/>
                    </mxGeometry>
                </mxCell>
                <mxCell id="vZo6r4Elmoyre8F_M5Mg-48" value="Powered by Battery" style="text;html=1;strokeColor=none;fillColor=none;align=center;verticalAlign=middle;whiteSpace=wrap;rounded=0;" parent="1" vertex="1">
                    <mxGeometry x="510" y="-540" width="120" height="20" as="geometry"/>
                </mxCell>
                <mxCell id="40" value="Parameters:&amp;nbsp;&lt;br style=&quot;font-size: 14px;&quot;&gt;&lt;div style=&quot;text-align: left; font-size: 14px;&quot;&gt;&lt;span style=&quot;font-weight: normal; font-size: 14px;&quot;&gt;- Pin Assignment&lt;/span&gt;&lt;/div&gt;&lt;span style=&quot;font-weight: normal; font-size: 14px;&quot;&gt;&lt;div style=&quot;text-align: left; font-size: 14px;&quot;&gt;&lt;span style=&quot;font-size: 14px;&quot;&gt;- Serial Communication&amp;nbsp;&lt;/span&gt;&lt;/div&gt;&lt;/span&gt;" style="text;html=1;strokeColor=none;fillColor=none;align=center;verticalAlign=middle;whiteSpace=wrap;rounded=0;labelBackgroundColor=none;fontStyle=1;fontSize=14;" parent="1" vertex="1">
                    <mxGeometry x="280" y="-555" width="160" height="50" as="geometry"/>
                </mxCell>
                <mxCell id="42" value="- Duty Cycle&lt;br style=&quot;font-size: 14px;&quot;&gt;- Output voltage/Current&lt;br style=&quot;font-size: 14px;&quot;&gt;- Input voltage/current" style="text;html=1;strokeColor=none;fillColor=none;align=left;verticalAlign=middle;whiteSpace=wrap;rounded=0;fontSize=14;" parent="1" vertex="1">
                    <mxGeometry x="281.26" y="-460" width="180" height="60" as="geometry"/>
                </mxCell>
                <mxCell id="43" value="- Cartesian coordinates" style="text;html=1;strokeColor=none;fillColor=none;align=left;verticalAlign=middle;whiteSpace=wrap;rounded=0;labelBackgroundColor=none;fontSize=14;" parent="1" vertex="1">
                    <mxGeometry x="281.26" y="-400" width="200" height="40" as="geometry"/>
                </mxCell>
                <mxCell id="44" value="- Input Voltage" style="text;html=1;strokeColor=none;fillColor=none;align=left;verticalAlign=middle;whiteSpace=wrap;rounded=0;labelBackgroundColor=none;fontSize=14;" parent="1" vertex="1">
                    <mxGeometry x="281.26" y="-350" width="200" height="40" as="geometry"/>
                </mxCell>
                <mxCell id="46" value="H-bridge" style="rounded=1;whiteSpace=wrap;html=1;fillColor=#dae8fc;strokeColor=#6c8ebf;" parent="1" vertex="1">
                    <mxGeometry x="153.7500000000001" y="-500" width="80" height="40" as="geometry"/>
                </mxCell>
                <mxCell id="47" value="" style="endArrow=classic;startArrow=classic;html=1;entryX=1;entryY=0.75;entryDx=0;entryDy=0;exitX=1;exitY=0.25;exitDx=0;exitDy=0;" parent="1" source="46" target="vZo6r4Elmoyre8F_M5Mg-17" edge="1">
                    <mxGeometry x="-7.120000000000003" y="-580" width="50" height="50" as="geometry">
                        <mxPoint x="-198.12" y="-290" as="sourcePoint"/>
                        <mxPoint x="-148.12" y="-340" as="targetPoint"/>
                        <Array as="points">
                            <mxPoint x="271.88" y="-490"/>
                            <mxPoint x="271.88" y="-525"/>
                        </Array>
                    </mxGeometry>
                </mxCell>
                <mxCell id="48" value="" style="endArrow=classic;startArrow=classic;html=1;entryX=0;entryY=0.5;entryDx=0;entryDy=0;exitX=0;exitY=0.5;exitDx=0;exitDy=0;" parent="1" source="vZo6r4Elmoyre8F_M5Mg-21" target="46" edge="1">
                    <mxGeometry x="-7.120000000000003" y="-580" width="50" height="50" as="geometry">
                        <mxPoint x="-138.12" y="-280" as="sourcePoint"/>
                        <mxPoint x="-88.12" y="-330" as="targetPoint"/>
                        <Array as="points">
                            <mxPoint x="131.88" y="-380"/>
                            <mxPoint x="131.88" y="-480"/>
                        </Array>
                    </mxGeometry>
                </mxCell>
                <mxCell id="49" value="" style="endArrow=classic;startArrow=classic;html=1;entryX=1;entryY=0.75;entryDx=0;entryDy=0;exitX=1;exitY=0.25;exitDx=0;exitDy=0;" parent="1" source="vZo6r4Elmoyre8F_M5Mg-20" target="46" edge="1">
                    <mxGeometry x="-7.120000000000003" y="-580" width="50" height="50" as="geometry">
                        <mxPoint x="-188.12" y="-310" as="sourcePoint"/>
                        <mxPoint x="-138.12" y="-360" as="targetPoint"/>
                        <Array as="points">
                            <mxPoint x="261.88" y="-440"/>
                            <mxPoint x="261.88" y="-470"/>
                        </Array>
                    </mxGeometry>
                </mxCell>
                <mxCell id="50" value="" style="endArrow=classic;startArrow=none;html=1;startFill=0;exitX=1;exitY=0.75;exitDx=0;exitDy=0;entryX=1;entryY=0.5;entryDx=0;entryDy=0;" parent="1" source="vZo6r4Elmoyre8F_M5Mg-20" target="vZo6r4Elmoyre8F_M5Mg-22" edge="1">
                    <mxGeometry x="-7.120000000000003" y="-580" width="50" height="50" as="geometry">
                        <mxPoint x="-248.12" y="-310" as="sourcePoint"/>
                        <mxPoint x="-198.12" y="-360" as="targetPoint"/>
                        <Array as="points">
                            <mxPoint x="261.88" y="-420"/>
                            <mxPoint x="261.88" y="-330"/>
                        </Array>
                    </mxGeometry>
                </mxCell>
                <mxCell id="69" style="edgeStyle=orthogonalEdgeStyle;orthogonalLoop=1;jettySize=auto;html=1;exitX=1;exitY=0.5;exitDx=0;exitDy=0;entryX=0;entryY=0.5;entryDx=0;entryDy=0;startArrow=classic;startFill=1;rounded=1;" edge="1" parent="1" source="68" target="vZo6r4Elmoyre8F_M5Mg-9">
                    <mxGeometry relative="1" as="geometry"/>
                </mxCell>
                <mxCell id="68" value="GPIO" style="rounded=1;whiteSpace=wrap;html=1;fontSize=14;" vertex="1" parent="1">
                    <mxGeometry x="645" y="-730" width="45" height="60" as="geometry"/>
                </mxCell>
                <mxCell id="73" style="edgeStyle=orthogonalEdgeStyle;curved=1;orthogonalLoop=1;jettySize=auto;html=1;exitX=0.5;exitY=0;exitDx=0;exitDy=0;entryX=0.5;entryY=1;entryDx=0;entryDy=0;startArrow=none;startFill=0;" edge="1" parent="1" source="72" target="vZo6r4Elmoyre8F_M5Mg-9">
                    <mxGeometry relative="1" as="geometry"/>
                </mxCell>
                <mxCell id="72" value="WiFi + Internet" style="rounded=1;whiteSpace=wrap;html=1;fontSize=14;" vertex="1" parent="1">
                    <mxGeometry x="770" y="-660" width="110" height="35.5" as="geometry"/>
                </mxCell>
                <mxCell id="74" value="GPIO" style="rounded=1;whiteSpace=wrap;html=1;fontSize=14;" vertex="1" parent="1">
                    <mxGeometry x="960" y="-730" width="45" height="60" as="geometry"/>
                </mxCell>
                <mxCell id="79" value="Data" style="text;html=1;strokeColor=none;fillColor=none;align=center;verticalAlign=middle;whiteSpace=wrap;rounded=0;fontSize=14;" vertex="1" parent="1">
                    <mxGeometry x="585" y="-690" width="40" height="20" as="geometry"/>
                </mxCell>
                <mxCell id="81" value="&lt;b&gt;&lt;font style=&quot;font-size: 19px&quot;&gt;Offsite&lt;/font&gt;&lt;/b&gt;" style="text;html=1;strokeColor=none;fillColor=none;align=center;verticalAlign=middle;whiteSpace=wrap;rounded=0;fontSize=16;" vertex="1" parent="1">
                    <mxGeometry x="1420" y="-644.5" width="100" height="34.5" as="geometry"/>
                </mxCell>
                <mxCell id="82" value="&lt;b&gt;&lt;font style=&quot;font-size: 19px&quot;&gt;Local&lt;/font&gt;&lt;/b&gt;" style="text;html=1;strokeColor=none;fillColor=none;align=center;verticalAlign=middle;whiteSpace=wrap;rounded=0;fontSize=16;" vertex="1" parent="1">
                    <mxGeometry x="1420" y="-690" width="100" height="34.5" as="geometry"/>
                </mxCell>
                <mxCell id="vZo6r4Elmoyre8F_M5Mg-5" value="" style="rounded=1;whiteSpace=wrap;html=1;fillColor=#d5e8d4;strokeColor=#82b366;" parent="1" vertex="1">
                    <mxGeometry x="1159" y="-600" width="360" height="320" as="geometry"/>
                </mxCell>
                <mxCell id="vZo6r4Elmoyre8F_M5Mg-15" value="React Website Frontend" style="rounded=1;whiteSpace=wrap;html=1;fillColor=#d5e8d4;strokeColor=#82b366;fontSize=14;" parent="1" vertex="1">
                    <mxGeometry x="1399" y="-390" width="117.5" height="60" as="geometry"/>
                </mxCell>
                <mxCell id="vZo6r4Elmoyre8F_M5Mg-16" value="Node.js Webserver Backend" style="rounded=1;whiteSpace=wrap;html=1;fillColor=#d5e8d4;strokeColor=#82b366;fontSize=14;" parent="1" vertex="1">
                    <mxGeometry x="1158" y="-390" width="117.5" height="60" as="geometry"/>
                </mxCell>
                <mxCell id="vZo6r4Elmoyre8F_M5Mg-28" value="&lt;b&gt;&lt;u&gt;&lt;font style=&quot;font-size: 20px&quot;&gt;Command&lt;/font&gt;&lt;/u&gt;&lt;/b&gt;" style="text;html=1;strokeColor=none;fillColor=none;align=center;verticalAlign=middle;whiteSpace=wrap;rounded=0;fontSize=18;" parent="1" vertex="1">
                    <mxGeometry x="1319.63" y="-590" width="40" height="20" as="geometry"/>
                </mxCell>
                <mxCell id="vZo6r4Elmoyre8F_M5Mg-57" value="" style="endArrow=classic;startArrow=classic;html=1;entryX=1;entryY=0.5;entryDx=0;entryDy=0;exitX=0;exitY=0.5;exitDx=0;exitDy=0;" parent="1" source="vZo6r4Elmoyre8F_M5Mg-15" target="vZo6r4Elmoyre8F_M5Mg-16" edge="1">
                    <mxGeometry x="1159" y="-600" width="50" height="50" as="geometry">
                        <mxPoint x="1349" y="-710" as="sourcePoint"/>
                        <mxPoint x="1349" y="-740" as="targetPoint"/>
                        <Array as="points">
                            <mxPoint x="1339" y="-360"/>
                        </Array>
                    </mxGeometry>
                </mxCell>
                <mxCell id="56" value="&lt;b style=&quot;font-size: 14px;&quot;&gt;Parameters:&lt;/b&gt;&lt;br style=&quot;font-size: 14px;&quot;&gt;- TCP port&lt;br style=&quot;font-size: 14px;&quot;&gt;- Network port&lt;br style=&quot;font-size: 14px;&quot;&gt;- Allowed Incoming IP connections&lt;br style=&quot;font-size: 14px;&quot;&gt;- Data format" style="text;html=1;strokeColor=none;fillColor=none;align=left;verticalAlign=middle;whiteSpace=wrap;rounded=0;fontSize=14;" parent="1" vertex="1">
                    <mxGeometry x="1286.5" y="-590" width="230" height="170" as="geometry"/>
                </mxCell>
                <mxCell id="84" value="User" style="shape=umlActor;verticalLabelPosition=bottom;verticalAlign=top;html=1;outlineConnect=0;strokeWidth=3;fontSize=19;align=center;" vertex="1" parent="1">
                    <mxGeometry x="1590" y="-410" width="50" height="90" as="geometry"/>
                </mxCell>
                <mxCell id="100" value="" style="endArrow=classic;html=1;strokeWidth=2;fontSize=19;exitX=0;exitY=0.5;exitDx=0;exitDy=0;entryX=1;entryY=0.5;entryDx=0;entryDy=0;dashed=1;" edge="1" parent="1" source="vZo6r4Elmoyre8F_M5Mg-2" target="vZo6r4Elmoyre8F_M5Mg-7">
                    <mxGeometry width="50" height="50" relative="1" as="geometry">
                        <mxPoint x="680" y="-450" as="sourcePoint"/>
                        <mxPoint x="900" y="-470" as="targetPoint"/>
                        <Array as="points">
                            <mxPoint x="1070" y="-960"/>
                            <mxPoint x="1070" y="-610"/>
                            <mxPoint x="910" y="-440"/>
                        </Array>
                    </mxGeometry>
                </mxCell>
                <mxCell id="101" value="Powering" style="text;html=1;strokeColor=none;fillColor=none;align=center;verticalAlign=middle;whiteSpace=wrap;rounded=0;fontSize=14;" vertex="1" parent="1">
                    <mxGeometry x="625" y="-460" width="40" height="20" as="geometry"/>
                </mxCell>
                <mxCell id="102" value="" style="shape=flexArrow;endArrow=classic;startArrow=none;html=1;entryX=0.25;entryY=0;entryDx=0;entryDy=0;strokeWidth=2;startFill=0;fillColor=#ffffff;" edge="1" parent="1" target="vZo6r4Elmoyre8F_M5Mg-5">
                    <mxGeometry width="100" height="100" relative="1" as="geometry">
                        <mxPoint x="1250" y="-800" as="sourcePoint"/>
                        <mxPoint x="1054" y="-994.5" as="targetPoint"/>
                        <Array as="points">
                            <mxPoint x="1250" y="-660"/>
                        </Array>
                    </mxGeometry>
                </mxCell>
                <mxCell id="103" value="&lt;span style=&quot;font-size: 15px;&quot;&gt;&amp;nbsp; Dataflow&amp;nbsp;&amp;nbsp;&lt;/span&gt;" style="edgeLabel;html=1;align=center;verticalAlign=middle;resizable=0;points=[];fontSize=15;" vertex="1" connectable="0" parent="102">
                    <mxGeometry x="0.1628" y="-2" relative="1" as="geometry">
                        <mxPoint x="121" y="-88" as="offset"/>
                    </mxGeometry>
                </mxCell>
                <mxCell id="106" value="" style="shape=flexArrow;endArrow=classic;startArrow=classic;html=1;strokeWidth=2;fontSize=19;width=10;" edge="1" parent="1">
                    <mxGeometry width="50" height="50" relative="1" as="geometry">
                        <mxPoint x="1520" y="-355.59" as="sourcePoint"/>
                        <mxPoint x="1584" y="-355.59" as="targetPoint"/>
                    </mxGeometry>
                </mxCell>
                <mxCell id="107" value="" style="rounded=0;whiteSpace=wrap;html=1;strokeWidth=3;fontSize=19;align=center;strokeColor=none;aspect=fixed;" vertex="1" parent="1">
                    <mxGeometry x="1246" y="-707.5" width="8" height="15" as="geometry"/>
                </mxCell>
            </root>
        </mxGraphModel>
    </diagram>
</mxfile>